NotoSerifTamil-ExtraCondensedThin.ufo
<glyph name="plus" format="2">
  <advance width="425"/>
  <unicode hex="002B"/>
  <outline>
    <contour>
      <point x="198" y="143" type="line"/>
      <point x="228" y="143" type="line"/>
      <point x="228" y="344" type="line"/>
      <point x="375" y="344" type="line"/>
      <point x="375" y="372" type="line"/>
      <point x="228" y="372" type="line"/>
      <point x="228" y="572" type="line"/>
      <point x="198" y="572" type="line"/>
      <point x="198" y="372" type="line"/>
      <point x="50" y="372" type="line"/>
      <point x="50" y="344" type="line"/>
      <point x="198" y="344" type="line"/>
    </contour>
  </outline>
</glyph>
<glyph name="comma" format="2">
  <advance width="157"/>
  <unicode hex="002C"/>
  <outline>
    <contour>
      <point x="20" y="-154" type="line"/>
      <point x="91" y="-124"/>
      <point x="118" y="-58"/>
      <point x="118" y="0" type="curve" smooth="yes"/>
      <point x="118" y="56"/>
      <point x="94" y="73"/>
      <point x="72" y="73" type="curve" smooth="yes"/>
      <point x="55" y="73"/>
      <point x="42" y="62"/>
      <point x="42" y="47" type="curve" smooth="yes"/>
      <point x="42" y="16"/>
      <point x="86" y="11"/>
      <point x="86" y="-26" type="curve" smooth="yes"/>
      <point x="86" y="-61"/>
      <point x="67" y="-110"/>
      <point x="20" y="-128" type="curve"/>
    </contour>
  </outline>
</glyph>
<glyph name="hyphen" format="2">
  <advance width="236"/>
  <unicode hex="002D"/>
  <outline>
    <contour>
      <point x="20" y="259" type="line"/>
      <point x="216" y="259" type="line"/>
      <point x="216" y="287" type="line"/>
      <point x="20" y="287" type="line"/>
    </contour>
  </outline>
</glyph>
<glyph name="two" format="2">
  <advance width="425"/>
  <unicode hex="0032"/>
  <outline>
    <contour>
      <point x="48" y="0" type="line"/>
      <point x="359" y="0" type="line"/>
      <point x="361" y="131" type="line"/>
      <point x="341" y="131" type="line"/>
      <point x="340" y="96" type="line" smooth="yes"/>
      <point x="339" y="45"/>
      <point x="333" y="28"/>
      <point x="280" y="28" type="curve" smooth="yes"/>
      <point x="82" y="28" type="line"/>
      <point x="241" y="282" type="line" smooth="yes"/>
      <point x="304" y="382"/>
      <point x="345" y="459"/>
      <point x="345" y="558" type="curve" smooth="yes"/>
      <point x="345" y="655"/>
      <point x="301" y="724"/>
      <point x="208" y="724" type="curve" smooth="yes"/>
      <point x="114" y="724"/>
      <point x="75" y="650"/>
      <point x="75" y="602" type="curve" smooth="yes"/>
      <point x="75" y="574"/>
      <point x="83" y="563"/>
      <point x="96" y="563" type="curve"/>
      <point x="96" y="639"/>
      <point x="128" y="699"/>
      <point x="208" y="699" type="curve" smooth="yes"/>
      <point x="293" y="699"/>
      <point x="317" y="631"/>
      <point x="317" y="553" type="curve" smooth="yes"/>
      <point x="317" y="469"/>
      <point x="282" y="398"/>
      <point x="208" y="279" type="curve" smooth="yes"/>
      <point x="48" y="22" type="line"/>
    </contour>
  </outline>
</glyph>
<glyph name="semicolon" format="2">
  <advance width="186"/>
  <unicode hex="003B"/>
  <outline>
    <contour>
      <point x="34" y="-154" type="line"/>
      <point x="105" y="-124"/>
      <point x="132" y="-58"/>
      <point x="132" y="0" type="curve" smooth="yes"/>
      <point x="132" y="56"/>
      <point x="108" y="73"/>
      <point x="86" y="73" type="curve" smooth="yes"/>
      <point x="69" y="73"/>
      <point x="56" y="62"/>
      <point x="56" y="47" type="curve" smooth="yes"/>
      <point x="56" y="16"/>
      <point x="100" y="11"/>
      <point x="100" y="-26" type="curve" smooth="yes"/>
      <point x="100" y="-61"/>
      <point x="81" y="-110"/>
      <point x="34" y="-128" type="curve"/>
    </contour>
    <contour>
      <point x="94" y="430" type="curve" smooth="yes"/>
      <point x="109" y="430"/>
      <point x="122" y="439"/>
      <point x="122" y="469" type="curve" smooth="yes"/>
      <point x="122" y="499"/>
      <point x="109" y="508"/>
      <point x="94" y="508" type="curve" smooth="yes"/>
      <point x="77" y="508"/>
      <point x="64" y="499"/>
      <point x="64" y="469" type="curve" smooth="yes"/>
      <point x="64" y="439"/>
      <point x="77" y="430"/>
    </contour>
  </outline>
</glyph>
<glyph name="underscore" format="2">
  <advance width="347"/>
  <unicode hex="005F"/>
  <outline>
    <contour>
      <point x="-3" y="-142" type="line"/>
      <point x="351" y="-142" type="line"/>
      <point x="351" y="-83" type="line"/>
      <point x="-3" y="-83" type="line"/>
    </contour>
  </outline>
</glyph>
<glyph name="bar" format="2">
  <advance width="423"/>
  <unicode hex="007C"/>
  <outline>
    <contour>
      <point x="198" y="-240" type="line"/>
      <point x="226" y="-240" type="line"/>
      <point x="226" y="760" type="line"/>
      <point x="198" y="760" type="line"/>
    </contour>
  </outline>
</glyph>
<glyph name="threesuperior" format="2">
  <advance width="303"/>
  <unicode hex="00B3"/>
  <outline>
    <contour>
      <point x="138" y="378" type="curve" smooth="yes"/>
      <point x="202" y="378"/>
      <point x="254" y="413"/>
      <point x="254" y="504" type="curve" smooth="yes"/>
      <point x="254" y="581"/>
      <point x="206" y="602"/>
      <point x="168" y="610" type="curve"/>
      <point x="168" y="611" type="line"/>
      <point x="205" y="621"/>
      <point x="241" y="661"/>
      <point x="241" y="723" type="curve" smooth="yes"/>
      <point x="241" y="788"/>
      <point x="204" y="821"/>
      <point x="139" y="821" type="curve" smooth="yes"/>
      <point x="84" y="821"/>
      <point x="41" y="784"/>
      <point x="41" y="740" type="curve" smooth="yes"/>
      <point x="41" y="712"/>
      <point x="53" y="700"/>
      <point x="65" y="700" type="curve"/>
      <point x="65" y="756"/>
      <point x="79" y="796"/>
      <point x="141" y="796" type="curve" smooth="yes"/>
      <point x="188" y="796"/>
      <point x="213" y="773"/>
      <point x="213" y="718" type="curve" smooth="yes"/>
      <point x="213" y="663"/>
      <point x="177" y="621"/>
      <point x="125" y="621" type="curve" smooth="yes"/>
      <point x="98" y="621" type="line"/>
      <point x="98" y="596" type="line"/>
      <point x="121" y="596" type="line" smooth="yes"/>
      <point x="190" y="596"/>
      <point x="226" y="564"/>
      <point x="226" y="503" type="curve" smooth="yes"/>
      <point x="226" y="432"/>
      <point x="189" y="403"/>
      <point x="140" y="403" type="curve" smooth="yes"/>
      <point x="75" y="403"/>
      <point x="59" y="444"/>
      <point x="59" y="496" type="curve"/>
      <point x="46" y="496"/>
      <point x="35" y="486"/>
      <point x="35" y="459" type="curve" smooth="yes"/>
      <point x="35" y="423"/>
      <point x="69" y="378"/>
    </contour>
  </outline>
</glyph>
<glyph name="divide" format="2">
  <advance width="425"/>
  <unicode hex="00F7"/>
  <outline>
    <contour>
      <point x="50" y="344" type="line"/>
      <point x="375" y="344" type="line"/>
      <point x="375" y="372" type="line"/>
      <point x="50" y="372" type="line"/>
    </contour>
    <contour>
      <point x="213" y="132" type="curve" smooth="yes"/>
      <point x="230" y="132"/>
      <point x="242" y="140"/>
      <point x="242" y="168" type="curve" smooth="yes"/>
      <point x="242" y="198"/>
      <point x="230" y="206"/>
      <point x="213" y="206" type="curve" smooth="yes"/>
      <point x="195" y="206"/>
      <point x="185" y="198"/>
      <point x="185" y="168" type="curve" smooth="yes"/>
      <point x="185" y="140"/>
      <point x="195" y="132"/>
    </contour>
    <contour>
      <point x="213" y="513" type="curve" smooth="yes"/>
      <point x="230" y="513"/>
      <point x="242" y="521"/>
      <point x="242" y="549" type="curve" smooth="yes"/>
      <point x="242" y="579"/>
      <point x="230" y="587"/>
      <point x="213" y="587" type="curve" smooth="yes"/>
      <point x="195" y="587"/>
      <point x="185" y="579"/>
      <point x="185" y="549" type="curve" smooth="yes"/>
      <point x="185" y="521"/>
      <point x="195" y="513"/>
    </contour>
  </outline>
</glyph>
<glyph name="dbldanda-deva" format="2">
  <advance width="443"/>
  <unicode hex="0965"/>
  <outline>
    <contour>
      <point x="306" y="0" type="line"/>
      <point x="334" y="0" type="line"/>
      <point x="334" y="542" type="line"/>
      <point x="306" y="542" type="line"/>
    </contour>
    <contour>
      <point x="108" y="0" type="line"/>
      <point x="137" y="0" type="line"/>
      <point x="137" y="542" type="line"/>
      <point x="108" y="542" type="line"/>
    </contour>
  </outline>
</glyph>
<glyph name="u-tamil" format="2">
  <advance width="766"/>
  <unicode hex="0B89"/>
  <note>
uni0B89
</note>
  <anchor x="395" y="0" name="bottom"/>
  <anchor x="395" y="0" name="nukta"/>
  <anchor x="397" y="542" name="top"/>
  <anchor x="397" y="542" name="vedic"/>
  <outline>
    <contour>
      <point x="127" y="0" type="curve" smooth="yes"/>
      <point x="741" y="0" type="line"/>
      <point x="741" y="23" type="line"/>
      <point x="125" y="23" type="line" smooth="yes"/>
      <point x="97" y="23"/>
      <point x="73" y="49"/>
      <point x="73" y="86" type="curve" smooth="yes"/>
      <point x="73" y="124"/>
      <point x="96" y="146"/>
      <point x="125" y="146" type="curve" smooth="yes"/>
      <point x="299" y="146" type="line" smooth="yes"/>
      <point x="400" y="146"/>
      <point x="468" y="212"/>
      <point x="468" y="339" type="curve" smooth="yes"/>
      <point x="468" y="471"/>
      <point x="392" y="551"/>
      <point x="275" y="551" type="curve" smooth="yes"/>
      <point x="177" y="551"/>
      <point x="118" y="470"/>
      <point x="118" y="394" type="curve" smooth="yes"/>
      <point x="118" y="318"/>
      <point x="149" y="266"/>
      <point x="210" y="266" type="curve" smooth="yes"/>
      <point x="268" y="266"/>
      <point x="309" y="315"/>
      <point x="309" y="391" type="curve" smooth="yes"/>
      <point x="309" y="456"/>
      <point x="275" y="507"/>
      <point x="238" y="535" type="curve"/>
      <point x="213" y="530" type="line"/>
      <point x="258" y="493"/>
      <point x="281" y="447"/>
      <point x="281" y="391" type="curve" smooth="yes"/>
      <point x="281" y="333"/>
      <point x="256" y="291"/>
      <point x="208" y="291" type="curve" smooth="yes"/>
      <point x="168" y="291"/>
      <point x="144" y="331"/>
      <point x="144" y="392" type="curve" smooth="yes"/>
      <point x="144" y="462"/>
      <point x="194" y="527"/>
      <point x="273" y="527" type="curve" smooth="yes"/>
      <point x="373" y="527"/>
      <point x="438" y="458"/>
      <point x="438" y="340" type="curve" smooth="yes"/>
      <point x="438" y="227"/>
      <point x="384" y="170"/>
      <point x="293" y="170" type="curve" smooth="yes"/>
      <point x="127" y="170" type="line" smooth="yes"/>
      <point x="80" y="170"/>
      <point x="48" y="138"/>
      <point x="48" y="86" type="curve" smooth="yes"/>
      <point x="48" y="35"/>
      <point x="80" y="0"/>
    </contour>
  </outline>
</glyph>
<glyph name="uu-tamil" format="2">
  <advance width="1203"/>
  <unicode hex="0B8A"/>
  <note>
uni0B8A
</note>
  <anchor x="652" y="0" name="bottom"/>
  <anchor x="653" y="0" name="nukta"/>
  <anchor x="655" y="542" name="top"/>
  <anchor x="655" y="542" name="vedic"/>
  <outline>
    <contour>
      <point x="127" y="0" type="curve" smooth="yes"/>
      <point x="1184" y="0" type="line"/>
      <point x="1184" y="23" type="line"/>
      <point x="125" y="23" type="line" smooth="yes"/>
      <point x="97" y="23"/>
      <point x="73" y="49"/>
      <point x="73" y="86" type="curve" smooth="yes"/>
      <point x="73" y="124"/>
      <point x="96" y="146"/>
      <point x="125" y="146" type="curve" smooth="yes"/>
      <point x="299" y="146" type="line" smooth="yes"/>
      <point x="400" y="146"/>
      <point x="468" y="212"/>
      <point x="468" y="339" type="curve" smooth="yes"/>
      <point x="468" y="471"/>
      <point x="392" y="551"/>
      <point x="275" y="551" type="curve" smooth="yes"/>
      <point x="177" y="551"/>
      <point x="118" y="470"/>
      <point x="118" y="394" type="curve" smooth="yes"/>
      <point x="118" y="318"/>
      <point x="149" y="266"/>
      <point x="210" y="266" type="curve" smooth="yes"/>
      <point x="268" y="266"/>
      <point x="309" y="315"/>
      <point x="309" y="391" type="curve" smooth="yes"/>
      <point x="309" y="456"/>
      <point x="275" y="507"/>
      <point x="238" y="535" type="curve"/>
      <point x="213" y="530" type="line"/>
      <point x="258" y="493"/>
      <point x="281" y="447"/>
      <point x="281" y="391" type="curve" smooth="yes"/>
      <point x="281" y="333"/>
      <point x="256" y="291"/>
      <point x="208" y="291" type="curve" smooth="yes"/>
      <point x="168" y="291"/>
      <point x="144" y="331"/>
      <point x="144" y="392" type="curve" smooth="yes"/>
      <point x="144" y="462"/>
      <point x="194" y="527"/>
      <point x="273" y="527" type="curve" smooth="yes"/>
      <point x="373" y="527"/>
      <point x="438" y="458"/>
      <point x="438" y="340" type="curve" smooth="yes"/>
      <point x="438" y="227"/>
      <point x="384" y="170"/>
      <point x="293" y="170" type="curve" smooth="yes"/>
      <point x="127" y="170" type="line" smooth="yes"/>
      <point x="80" y="170"/>
      <point x="48" y="138"/>
      <point x="48" y="86" type="curve" smooth="yes"/>
      <point x="48" y="35"/>
      <point x="80" y="0"/>
    </contour>
    <contour>
      <point x="662" y="104" type="curve" smooth="yes"/>
      <point x="725" y="104"/>
      <point x="768" y="152"/>
      <point x="768" y="243" type="curve" smooth="yes"/>
      <point x="768" y="322"/>
      <point x="727" y="371"/>
      <point x="670" y="371" type="curve" smooth="yes"/>
      <point x="604" y="371"/>
      <point x="574" y="308"/>
      <point x="558" y="234" type="curve"/>
      <point x="570" y="209" type="line"/>
      <point x="587" y="286"/>
      <point x="613" y="347"/>
      <point x="666" y="347" type="curve" smooth="yes"/>
      <point x="712" y="347"/>
      <point x="741" y="309"/>
      <point x="741" y="240" type="curve" smooth="yes"/>
      <point x="741" y="166"/>
      <point x="707" y="129"/>
      <point x="660" y="129" type="curve" smooth="yes"/>
      <point x="603" y="129"/>
      <point x="566" y="190"/>
      <point x="566" y="287" type="curve" smooth="yes"/>
      <point x="566" y="427"/>
      <point x="609" y="527"/>
      <point x="715" y="527" type="curve" smooth="yes"/>
      <point x="791" y="527"/>
      <point x="865" y="466"/>
      <point x="865" y="329" type="curve"/>
      <point x="887" y="330" type="line"/>
      <point x="887" y="493"/>
      <point x="804" y="551"/>
      <point x="714" y="551" type="curve" smooth="yes"/>
      <point x="595" y="551"/>
      <point x="540" y="437"/>
      <point x="540" y="289" type="curve" smooth="yes"/>
      <point x="540" y="180"/>
      <point x="587" y="104"/>
    </contour>
    <contour>
      <point x="865" y="107" type="line"/>
      <point x="894" y="107" type="line"/>
      <point x="894" y="519" type="line"/>
      <point x="1056" y="519" type="line"/>
      <point x="1056" y="107" type="line"/>
      <point x="1084" y="107" type="line"/>
      <point x="1084" y="519" type="line"/>
      <point x="1184" y="519" type="line"/>
      <point x="1184" y="542" type="line"/>
      <point x="866" y="542" type="line"/>
      <point x="866" y="416" type="line"/>
      <point x="865" y="395" type="line"/>
    </contour>
  </outline>
</glyph>
<glyph name="ai-tamil" format="2">
  <advance width="708"/>
  <unicode hex="0B90"/>
  <note>
uni0B90
</note>
  <anchor x="367" y="0" name="bottom"/>
  <anchor x="366" y="-278" name="nukta"/>
  <anchor x="372" y="542" name="top"/>
  <anchor x="373" y="542" name="vedic"/>
  <outline>
    <contour>
      <point x="211" y="-278" type="curve" smooth="yes"/>
      <point x="297" y="-278"/>
      <point x="346" y="-224"/>
      <point x="368" y="-161" type="curve"/>
      <point x="389" y="-225"/>
      <point x="432" y="-278"/>
      <point x="503" y="-278" type="curve" smooth="yes"/>
      <point x="585" y="-278"/>
      <point x="652" y="-216"/>
      <point x="652" y="-92" type="curve" smooth="yes"/>
      <point x="652" y="-26"/>
      <point x="628" y="27"/>
      <point x="597" y="79" type="curve"/>
      <point x="575" y="64" type="line"/>
      <point x="602" y="20"/>
      <point x="624" y="-35"/>
      <point x="624" y="-92" type="curve" smooth="yes"/>
      <point x="624" y="-194"/>
      <point x="574" y="-254"/>
      <point x="505" y="-254" type="curve" smooth="yes"/>
      <point x="425" y="-254"/>
      <point x="384" y="-183"/>
      <point x="384" y="-82" type="curve" smooth="yes"/>
      <point x="384" y="-8" type="line"/>
      <point x="356" y="-8" type="line"/>
      <point x="356" y="-99" type="line" smooth="yes"/>
      <point x="356" y="-169"/>
      <point x="304" y="-254"/>
      <point x="214" y="-254" type="curve" smooth="yes"/>
      <point x="138" y="-254"/>
      <point x="92" y="-204"/>
      <point x="92" y="-102" type="curve" smooth="yes"/>
      <point x="92" y="21"/>
      <point x="164" y="64"/>
      <point x="370" y="90" type="curve" smooth="yes"/>
      <point x="539" y="111"/>
      <point x="651" y="170"/>
      <point x="651" y="352" type="curve" smooth="yes"/>
      <point x="651" y="484"/>
      <point x="590" y="551"/>
      <point x="504" y="551" type="curve" smooth="yes"/>
      <point x="427" y="551"/>
      <point x="390" y="498"/>
      <point x="370" y="436" type="curve"/>
      <point x="347" y="498"/>
      <point x="304" y="551"/>
      <point x="222" y="551" type="curve" smooth="yes"/>
      <point x="111" y="551"/>
      <point x="56" y="458"/>
      <point x="56" y="351" type="curve" smooth="yes"/>
      <point x="56" y="239"/>
      <point x="96" y="164"/>
      <point x="166" y="164" type="curve" smooth="yes"/>
      <point x="215" y="164"/>
      <point x="259" y="204"/>
      <point x="259" y="286" type="curve" smooth="yes"/>
      <point x="259" y="356"/>
      <point x="226" y="398"/>
      <point x="176" y="398" type="curve" smooth="yes"/>
      <point x="117" y="398"/>
      <point x="86" y="334"/>
      <point x="77" y="264" type="curve"/>
      <point x="92" y="244" type="line"/>
      <point x="103" y="318"/>
      <point x="128" y="374"/>
      <point x="173" y="374" type="curve" smooth="yes"/>
      <point x="210" y="374"/>
      <point x="232" y="341"/>
      <point x="232" y="283" type="curve" smooth="yes"/>
      <point x="232" y="222"/>
      <point x="202" y="190"/>
      <point x="163" y="190" type="curve" smooth="yes"/>
      <point x="112" y="190"/>
      <point x="83" y="248"/>
      <point x="83" y="347" type="curve" smooth="yes"/>
      <point x="83" y="442"/>
      <point x="126" y="526"/>
      <point x="217" y="526" type="curve" smooth="yes"/>
      <point x="304" y="526"/>
      <point x="356" y="458"/>
      <point x="356" y="356" type="curve" smooth="yes"/>
      <point x="356" y="208" type="line"/>
      <point x="384" y="208" type="line"/>
      <point x="384" y="374" type="line" smooth="yes"/>
      <point x="384" y="444"/>
      <point x="420" y="527"/>
      <point x="500" y="527" type="curve" smooth="yes"/>
      <point x="577" y="527"/>
      <point x="621" y="466"/>
      <point x="621" y="355" type="curve" smooth="yes"/>
      <point x="621" y="195"/>
      <point x="543" y="134"/>
      <point x="350" y="111" type="curve" smooth="yes"/>
      <point x="141" y="86"/>
      <point x="62" y="31"/>
      <point x="62" y="-99" type="curve" smooth="yes"/>
      <point x="62" y="-218"/>
      <point x="121" y="-278"/>
    </contour>
  </outline>
</glyph>
<glyph name="tta-tamil" format="2">
  <advance width="643"/>
  <unicode hex="0B9F"/>
  <note>
uni0B9F
</note>
  <anchor x="360" y="0" name="bottom"/>
  <anchor x="360" y="0" name="nukta"/>
  <anchor x="373" y="542" name="top"/>
  <anchor x="357" y="542" name="vedic"/>
  <outline>
    <contour>
      <point x="95" y="0" type="line"/>
      <point x="621" y="0" type="line"/>
      <point x="621" y="23" type="line"/>
      <point x="124" y="23" type="line"/>
      <point x="124" y="542" type="line"/>
      <point x="95" y="542" type="line"/>
    </contour>
  </outline>
</glyph>
<glyph name="ma-tamil" format="2">
  <advance width="663"/>
  <unicode hex="0BAE"/>
  <note>
uni0BAE
</note>
  <anchor x="335" y="0" name="bottom"/>
  <anchor x="590" y="542" name="imatra"/>
  <anchor x="336" y="0" name="nukta"/>
  <anchor x="354" y="542" name="top"/>
  <anchor x="350" y="542" name="vedic"/>
  <outline>
    <contour>
      <point x="95" y="0" type="line"/>
      <point x="489" y="0" type="line" smooth="yes"/>
      <point x="577" y="0"/>
      <point x="606" y="77"/>
      <point x="606" y="212" type="curve" smooth="yes"/>
      <point x="606" y="416"/>
      <point x="548" y="551"/>
      <point x="433" y="551" type="curve" smooth="yes"/>
      <point x="355" y="551"/>
      <point x="336" y="489"/>
      <point x="336" y="402" type="curve" smooth="yes"/>
      <point x="336" y="23" type="line"/>
      <point x="124" y="23" type="line"/>
      <point x="124" y="542" type="line"/>
      <point x="95" y="542" type="line"/>
    </contour>
    <contour>
      <point x="365" y="23" type="line"/>
      <point x="365" y="402" type="line" smooth="yes"/>
      <point x="365" y="483"/>
      <point x="378" y="526"/>
      <point x="437" y="526" type="curve" smooth="yes"/>
      <point x="528" y="526"/>
      <point x="580" y="397"/>
      <point x="580" y="210" type="curve" smooth="yes"/>
      <point x="580" y="90"/>
      <point x="557" y="23"/>
      <point x="483" y="23" type="curve" smooth="yes"/>
    </contour>
  </outline>
</glyph>
<glyph name="ya-tamil" format="2">
  <advance width="689"/>
  <unicode hex="0BAF"/>
  <note>
uni0BAF
</note>
  <anchor x="358" y="0" name="bottom"/>
  <anchor x="590" y="542" name="imatra"/>
  <anchor x="358" y="0" name="nukta"/>
  <anchor x="358" y="542" name="top"/>
  <anchor x="346" y="542" name="vedic"/>
  <outline>
    <contour>
      <point x="187" y="-5" type="curve" smooth="yes"/>
      <point x="230" y="-5"/>
      <point x="262" y="19"/>
      <point x="278" y="58" type="curve"/>
      <point x="278" y="0" type="line"/>
      <point x="595" y="0" type="line"/>
      <point x="595" y="542" type="line"/>
      <point x="567" y="542" type="line"/>
      <point x="567" y="23" type="line"/>
      <point x="305" y="23" type="line"/>
      <point x="305" y="542" type="line"/>
      <point x="276" y="542" type="line"/>
      <point x="276" y="131" type="line" smooth="yes"/>
      <point x="276" y="70"/>
      <point x="241" y="21"/>
      <point x="191" y="21" type="curve" smooth="yes"/>
      <point x="147" y="21"/>
      <point x="121" y="51"/>
      <point x="121" y="124" type="curve" smooth="yes"/>
      <point x="121" y="542" type="line"/>
      <point x="93" y="542" type="line"/>
      <point x="93" y="128" type="line" smooth="yes"/>
      <point x="93" y="35"/>
      <point x="131" y="-5"/>
    </contour>
  </outline>
</glyph>
<glyph name="lla-tamil" format="2">
  <advance width="883"/>
  <unicode hex="0BB3"/>
  <note>
uni0BB3
</note>
  <anchor x="454" y="0" name="bottom"/>
  <anchor x="816" y="542" name="imatra"/>
  <anchor x="454" y="0" name="nukta"/>
  <anchor x="475" y="542" name="top"/>
  <anchor x="460" y="542" name="vedic"/>
  <outline>
    <contour>
      <point x="188" y="-4" type="curve" smooth="yes"/>
      <point x="257" y="-4"/>
      <point x="306" y="48"/>
      <point x="306" y="148" type="curve" smooth="yes"/>
      <point x="306" y="234"/>
      <point x="258" y="283"/>
      <point x="198" y="283" type="curve" smooth="yes"/>
      <point x="130" y="283"/>
      <point x="92" y="227"/>
      <point x="77" y="162" type="curve"/>
      <point x="86" y="130" type="line"/>
      <point x="106" y="198"/>
      <point x="137" y="258"/>
      <point x="194" y="258" type="curve" smooth="yes"/>
      <point x="244" y="258"/>
      <point x="279" y="217"/>
      <point x="279" y="144" type="curve" smooth="yes"/>
      <point x="279" y="64"/>
      <point x="239" y="21"/>
      <point x="188" y="21" type="curve" smooth="yes"/>
      <point x="121" y="21"/>
      <point x="83" y="102"/>
      <point x="83" y="227" type="curve" smooth="yes"/>
      <point x="83" y="401"/>
      <point x="155" y="527"/>
      <point x="282" y="527" type="curve" smooth="yes"/>
      <point x="382" y="527"/>
      <point x="461" y="460"/>
      <point x="461" y="285" type="curve"/>
      <point x="485" y="286" type="line"/>
      <point x="484" y="476"/>
      <point x="404" y="551"/>
      <point x="281" y="551" type="curve" smooth="yes"/>
      <point x="133" y="551"/>
      <point x="56" y="412"/>
      <point x="56" y="229" type="curve"/>
      <point x="56" y="94"/>
      <point x="103" y="-4"/>
    </contour>
    <contour>
      <point x="461" y="0" type="line"/>
      <point x="490" y="0" type="line"/>
      <point x="490" y="519" type="line"/>
      <point x="686" y="519" type="line"/>
      <point x="686" y="0" type="line"/>
      <point x="715" y="0" type="line"/>
      <point x="715" y="519" type="line"/>
      <point x="858" y="519" type="line"/>
      <point x="858" y="542" type="line"/>
      <point x="462" y="542" type="line"/>
      <point x="462" y="383" type="line"/>
      <point x="461" y="357" type="line"/>
    </contour>
  </outline>
</glyph>
<glyph name="sa-tamil" format="2">
  <advance width="938"/>
  <unicode hex="0BB8"/>
  <note>
uni0BB8
</note>
  <anchor x="482" y="0" name="bottom"/>
  <anchor x="482" y="0" name="nukta"/>
  <anchor x="474" y="542" name="top"/>
  <anchor x="469" y="542" name="vedic"/>
  <outline>
    <contour>
      <point x="429" y="0" type="line"/>
      <point x="458" y="0" type="line"/>
      <point x="458" y="430" type="line" smooth="yes"/>
      <point x="458" y="497"/>
      <point x="487" y="527"/>
      <point x="532" y="527" type="curve" smooth="yes"/>
      <point x="578" y="527"/>
      <point x="605" y="494"/>
      <point x="605" y="428" type="curve" smooth="yes"/>
      <point x="605" y="139" type="line" smooth="yes"/>
      <point x="605" y="47"/>
      <point x="638" y="-4"/>
      <point x="710" y="-4" type="curve" smooth="yes"/>
      <point x="801" y="-4"/>
      <point x="882" y="86"/>
      <point x="882" y="284" type="curve" smooth="yes"/>
      <point x="882" y="384"/>
      <point x="862" y="465"/>
      <point x="803" y="547" type="curve"/>
      <point x="779" y="531" type="line"/>
      <point x="828" y="465"/>
      <point x="854" y="393"/>
      <point x="854" y="284" type="curve" smooth="yes"/>
      <point x="854" y="99"/>
      <point x="781" y="20"/>
      <point x="712" y="20" type="curve" smooth="yes"/>
      <point x="654" y="20"/>
      <point x="634" y="63"/>
      <point x="634" y="138" type="curve" smooth="yes"/>
      <point x="634" y="425" type="line" smooth="yes"/>
      <point x="634" y="512"/>
      <point x="593" y="551"/>
      <point x="533" y="551" type="curve" smooth="yes"/>
      <point x="472" y="551"/>
      <point x="434" y="505"/>
      <point x="434" y="436" type="curve" smooth="yes"/>
      <point x="434" y="392" type="line"/>
      <point x="429" y="392" type="line"/>
    </contour>
    <contour>
      <point x="193" y="-4" type="curve" smooth="yes"/>
      <point x="263" y="-4"/>
      <point x="310" y="51"/>
      <point x="310" y="146" type="curve" smooth="yes"/>
      <point x="310" y="233"/>
      <point x="264" y="283"/>
      <point x="200" y="283" type="curve" smooth="yes"/>
      <point x="128" y="283"/>
      <point x="94" y="220"/>
      <point x="80" y="162" type="curve"/>
      <point x="89" y="130" type="line"/>
      <point x="109" y="198"/>
      <point x="140" y="258"/>
      <point x="197" y="258" type="curve" smooth="yes"/>
      <point x="249" y="258"/>
      <point x="283" y="215"/>
      <point x="283" y="142" type="curve" smooth="yes"/>
      <point x="283" y="62"/>
      <point x="241" y="21"/>
      <point x="192" y="21" type="curve" smooth="yes"/>
      <point x="126" y="21"/>
      <point x="85" y="94"/>
      <point x="85" y="229" type="curve" smooth="yes"/>
      <point x="85" y="387"/>
      <point x="135" y="527"/>
      <point x="269" y="527" type="curve" smooth="yes"/>
      <point x="359" y="527"/>
      <point x="429" y="476"/>
      <point x="429" y="337" type="curve"/>
      <point x="453" y="336" type="line"/>
      <point x="452" y="494"/>
      <point x="373" y="551"/>
      <point x="270" y="551" type="curve" smooth="yes"/>
      <point x="114" y="551"/>
      <point x="59" y="397"/>
      <point x="59" y="230" type="curve" smooth="yes"/>
      <point x="59" y="87"/>
      <point x="107" y="-4"/>
    </contour>
  </outline>
</glyph>
<glyph name="five-tamil" format="2">
  <advance width="771"/>
  <unicode hex="0BEB"/>
  <note>
uni0BEB
</note>
  <outline>
    <contour>
      <point x="373" y="-278" type="curve" smooth="yes"/>
      <point x="530" y="-278"/>
      <point x="662" y="-146"/>
      <point x="662" y="112" type="curve" smooth="yes"/>
      <point x="662" y="255"/>
      <point x="618" y="328"/>
      <point x="542" y="328" type="curve" smooth="yes"/>
      <point x="475" y="328"/>
      <point x="435" y="261"/>
      <point x="435" y="169" type="curve" smooth="yes"/>
      <point x="435" y="156" type="line"/>
      <point x="449" y="156" type="line"/>
      <point x="449" y="169" type="line" smooth="yes"/>
      <point x="449" y="235"/>
      <point x="479" y="304"/>
      <point x="538" y="304" type="curve" smooth="yes"/>
      <point x="598" y="304"/>
      <point x="631" y="245"/>
      <point x="631" y="113" type="curve" smooth="yes"/>
      <point x="631" y="-130"/>
      <point x="513" y="-252"/>
      <point x="369" y="-252" type="curve" smooth="yes"/>
      <point x="190" y="-252"/>
      <point x="78" y="-93"/>
      <point x="78" y="238" type="curve" smooth="yes"/>
      <point x="78" y="547"/>
      <point x="183" y="761"/>
      <point x="388" y="761" type="curve" smooth="yes"/>
      <point x="544" y="761"/>
      <point x="656" y="655"/>
      <point x="686" y="407" type="curve"/>
      <point x="713" y="407" type="line"/>
      <point x="688" y="673"/>
      <point x="559" y="792"/>
      <point x="389" y="792" type="curve" smooth="yes"/>
      <point x="166" y="792"/>
      <point x="49" y="562"/>
      <point x="49" y="238" type="curve" smooth="yes"/>
      <point x="49" y="-95"/>
      <point x="167" y="-278"/>
    </contour>
    <contour>
      <point x="230" y="0" type="line"/>
      <point x="256" y="0" type="line"/>
      <point x="256" y="519" type="line"/>
      <point x="420" y="519" type="line"/>
      <point x="420" y="0" type="line"/>
      <point x="449" y="0" type="line"/>
      <point x="449" y="519" type="line"/>
      <point x="590" y="519" type="line"/>
      <point x="590" y="542" type="line"/>
      <point x="230" y="542" type="line"/>
    </contour>
  </outline>
</glyph>
<glyph name="eight-tamil" format="2">
  <advance width="934"/>
  <unicode hex="0BEE"/>
  <note>
uni0BEE
</note>
  <outline>
    <contour>
      <point x="811" y="-136" type="line"/>
      <point x="840" y="-136" type="line"/>
      <point x="840" y="542" type="line"/>
      <point x="811" y="542" type="line"/>
      <point x="811" y="164" type="line"/>
      <point x="84" y="164" type="line" smooth="yes"/>
      <point x="52" y="164"/>
      <point x="34" y="145"/>
      <point x="34" y="108" type="curve" smooth="yes"/>
      <point x="34" y="34"/>
      <point x="133" y="-75"/>
      <point x="319" y="-75" type="curve" smooth="yes"/>
      <point x="501" y="-75"/>
      <point x="668" y="27"/>
      <point x="668" y="274" type="curve" smooth="yes"/>
      <point x="668" y="446"/>
      <point x="592" y="551"/>
      <point x="467" y="551" type="curve" smooth="yes"/>
      <point x="341" y="551"/>
      <point x="288" y="433"/>
      <point x="288" y="322" type="curve" smooth="yes"/>
      <point x="288" y="246"/>
      <point x="316" y="186"/>
      <point x="339" y="148" type="curve"/>
      <point x="367" y="148" type="line"/>
      <point x="339" y="189"/>
      <point x="314" y="246"/>
      <point x="314" y="316" type="curve" smooth="yes"/>
      <point x="314" y="421"/>
      <point x="358" y="527"/>
      <point x="464" y="527" type="curve" smooth="yes"/>
      <point x="571" y="527"/>
      <point x="639" y="434"/>
      <point x="639" y="275" type="curve" smooth="yes"/>
      <point x="639" y="42"/>
      <point x="482" y="-49"/>
      <point x="318" y="-49" type="curve" smooth="yes"/>
      <point x="156" y="-49"/>
      <point x="61" y="43"/>
      <point x="61" y="114" type="curve" smooth="yes"/>
      <point x="61" y="128"/>
      <point x="69" y="141"/>
      <point x="87" y="141" type="curve" smooth="yes"/>
      <point x="811" y="141" type="line"/>
    </contour>
  </outline>
</glyph>
<glyph name="year-tamil" format="2">
  <advance width="1547"/>
  <unicode hex="0BF5"/>
  <note>
uni0BF5
</note>
  <anchor x="614" y="0" name="bottom"/>
  <anchor x="976" y="542" name="imatra"/>
  <anchor x="614" y="0" name="nukta"/>
  <anchor x="635" y="542" name="top"/>
  <anchor x="620" y="542" name="vedic"/>
  <outline>
    <contour>
      <point x="597" y="-250" type="curve" smooth="yes"/>
      <point x="891" y="-250"/>
      <point x="1091" y="-119"/>
      <point x="1091" y="124" type="curve" smooth="yes"/>
      <point x="1091" y="266"/>
      <point x="1042" y="328"/>
      <point x="967" y="328" type="curve" smooth="yes"/>
      <point x="895" y="328"/>
      <point x="860" y="264"/>
      <point x="860" y="172" type="curve" smooth="yes"/>
      <point x="860" y="159" type="line"/>
      <point x="874" y="159" type="line"/>
      <point x="874" y="172" type="line" smooth="yes"/>
      <point x="874" y="245"/>
      <point x="903" y="304"/>
      <point x="962" y="304" type="curve" smooth="yes"/>
      <point x="1021" y="304"/>
      <point x="1060" y="256"/>
      <point x="1060" y="124" type="curve" smooth="yes"/>
      <point x="1060" y="-102"/>
      <point x="872" y="-224"/>
      <point x="599" y="-224" type="curve" smooth="yes"/>
      <point x="293" y="-224"/>
      <point x="88" y="-69"/>
      <point x="88" y="257" type="curve" smooth="yes"/>
      <point x="88" y="577"/>
      <point x="292" y="765"/>
      <point x="650" y="765" type="curve" smooth="yes"/>
      <point x="991" y="765"/>
      <point x="1212" y="626"/>
      <point x="1212" y="347" type="curve" smooth="yes"/>
      <point x="1212" y="139" type="line" smooth="yes"/>
      <point x="1212" y="47"/>
      <point x="1245" y="-4"/>
      <point x="1317" y="-4" type="curve" smooth="yes"/>
      <point x="1408" y="-4"/>
      <point x="1489" y="86"/>
      <point x="1489" y="284" type="curve" smooth="yes"/>
      <point x="1489" y="384"/>
      <point x="1468" y="467"/>
      <point x="1410" y="549" type="curve"/>
      <point x="1388" y="533" type="line"/>
      <point x="1437" y="467"/>
      <point x="1460" y="393"/>
      <point x="1460" y="284" type="curve" smooth="yes"/>
      <point x="1460" y="99"/>
      <point x="1388" y="20"/>
      <point x="1319" y="20" type="curve" smooth="yes"/>
      <point x="1261" y="20"/>
      <point x="1241" y="63"/>
      <point x="1241" y="138" type="curve" smooth="yes"/>
      <point x="1241" y="346" type="line" smooth="yes"/>
      <point x="1241" y="648"/>
      <point x="1006" y="791"/>
      <point x="650" y="791" type="curve" smooth="yes"/>
      <point x="272" y="791"/>
      <point x="59" y="584"/>
      <point x="59" y="257" type="curve" smooth="yes"/>
      <point x="59" y="-77"/>
      <point x="275" y="-250"/>
    </contour>
    <component base="lla-tamil" xOffset="160"/>
  </outline>
</glyph>
<glyph name="credit-tamil" format="2">
  <advance width="1084"/>
  <unicode hex="0BF7"/>
  <note>
uni0BF7
</note>
  <anchor x="331" y="0" name="bottom"/>
  <anchor x="332" y="0" name="nukta"/>
  <anchor x="333" y="542" name="top"/>
  <anchor x="334" y="542" name="vedic"/>
  <outline>
    <contour>
      <point x="686" y="-4" type="curve" smooth="yes"/>
      <point x="741" y="-4"/>
      <point x="789" y="39"/>
      <point x="789" y="130" type="curve" smooth="yes"/>
      <point x="789" y="230"/>
      <point x="729" y="299"/>
      <point x="641" y="299" type="curve" smooth="yes"/>
      <point x="559" y="299"/>
      <point x="510" y="243"/>
      <point x="468" y="182" type="curve"/>
      <point x="468" y="140" type="line"/>
      <point x="512" y="214"/>
      <point x="562" y="275"/>
      <point x="638" y="275" type="curve" smooth="yes"/>
      <point x="710" y="275"/>
      <point x="759" y="221"/>
      <point x="759" y="126" type="curve" smooth="yes"/>
      <point x="759" y="52"/>
      <point x="723" y="21"/>
      <point x="682" y="21" type="curve" smooth="yes"/>
      <point x="627" y="21"/>
      <point x="594" y="83"/>
      <point x="594" y="175" type="curve" smooth="yes"/>
      <point x="594" y="304"/>
      <point x="658" y="390"/>
      <point x="763" y="390" type="curve" smooth="yes"/>
      <point x="855" y="390"/>
      <point x="936" y="321"/>
      <point x="936" y="185" type="curve" smooth="yes"/>
      <point x="936" y="117"/>
      <point x="911" y="64"/>
      <point x="882" y="19" type="curve"/>
      <point x="896" y="0" type="line"/>
      <point x="1060" y="0" type="line"/>
      <point x="1060" y="23" type="line"/>
      <point x="905" y="23" type="line"/>
      <point x="912" y="18" type="line"/>
      <point x="940" y="64"/>
      <point x="966" y="113"/>
      <point x="966" y="184" type="curve" smooth="yes"/>
      <point x="966" y="333"/>
      <point x="873" y="414"/>
      <point x="766" y="414" type="curve" smooth="yes"/>
      <point x="646" y="414"/>
      <point x="566" y="314"/>
      <point x="566" y="177" type="curve" smooth="yes"/>
      <point x="566" y="68"/>
      <point x="608" y="-4"/>
    </contour>
    <component base="e-tamil" xOffset="1"/>
  </outline>
</glyph>
<glyph name="quoteleft" format="2">
  <advance width="168"/>
  <unicode hex="2018"/>
  <outline>
    <contour>
      <point x="97" y="462" type="curve" smooth="yes"/>
      <point x="117" y="462"/>
      <point x="127" y="476"/>
      <point x="127" y="489" type="curve" smooth="yes"/>
      <point x="127" y="526"/>
      <point x="82" y="524"/>
      <point x="82" y="583" type="curve" smooth="yes"/>
      <point x="82" y="618"/>
      <point x="96" y="659"/>
      <point x="156" y="688" type="curve"/>
      <point x="156" y="717" type="line"/>
      <point x="73" y="675"/>
      <point x="50" y="627"/>
      <point x="50" y="550" type="curve" smooth="yes"/>
      <point x="50" y="500"/>
      <point x="67" y="462"/>
    </contour>
  </outline>
</glyph>
<glyph name="quotedblleft" format="2">
  <advance width="312"/>
  <unicode hex="201C"/>
  <outline>
    <contour>
      <point x="213" y="462" type="curve" smooth="yes"/>
      <point x="233" y="462"/>
      <point x="243" y="476"/>
      <point x="243" y="489" type="curve" smooth="yes"/>
      <point x="243" y="526"/>
      <point x="198" y="524"/>
      <point x="198" y="583" type="curve" smooth="yes"/>
      <point x="198" y="618"/>
      <point x="212" y="659"/>
      <point x="272" y="688" type="curve"/>
      <point x="272" y="717" type="line"/>
      <point x="189" y="675"/>
      <point x="166" y="627"/>
      <point x="166" y="550" type="curve" smooth="yes"/>
      <point x="166" y="500"/>
      <point x="183" y="462"/>
    </contour>
    <contour>
      <point x="118" y="462" type="curve" smooth="yes"/>
      <point x="138" y="462"/>
      <point x="148" y="476"/>
      <point x="148" y="489" type="curve" smooth="yes"/>
      <point x="148" y="526"/>
      <point x="103" y="524"/>
      <point x="103" y="583" type="curve" smooth="yes"/>
      <point x="103" y="618"/>
      <point x="117" y="659"/>
      <point x="177" y="688" type="curve"/>
      <point x="177" y="717" type="line"/>
      <point x="94" y="675"/>
      <point x="71" y="627"/>
      <point x="71" y="550" type="curve" smooth="yes"/>
      <point x="71" y="500"/>
      <point x="88" y="462"/>
    </contour>
  </outline>
</glyph>
<glyph name="quotedblright" format="2">
  <advance width="312"/>
  <unicode hex="201D"/>
  <outline>
    <contour>
      <point x="135" y="462" type="line"/>
      <point x="218" y="501"/>
      <point x="241" y="549"/>
      <point x="241" y="626" type="curve" smooth="yes"/>
      <point x="241" y="676"/>
      <point x="224" y="714"/>
      <point x="194" y="714" type="curve" smooth="yes"/>
      <point x="174" y="714"/>
      <point x="164" y="700"/>
      <point x="164" y="687" type="curve" smooth="yes"/>
      <point x="164" y="650"/>
      <point x="209" y="652"/>
      <point x="209" y="593" type="curve" smooth="yes"/>
      <point x="209" y="558"/>
      <point x="195" y="517"/>
      <point x="135" y="488" type="curve"/>
    </contour>
    <contour>
      <point x="41" y="462" type="line"/>
      <point x="124" y="501"/>
      <point x="147" y="549"/>
      <point x="147" y="626" type="curve" smooth="yes"/>
      <point x="147" y="676"/>
      <point x="130" y="714"/>
      <point x="100" y="714" type="curve" smooth="yes"/>
      <point x="80" y="714"/>
      <point x="70" y="700"/>
      <point x="70" y="687" type="curve" smooth="yes"/>
      <point x="70" y="650"/>
      <point x="115" y="652"/>
      <point x="115" y="593" type="curve" smooth="yes"/>
      <point x="115" y="558"/>
      <point x="101" y="517"/>
      <point x="41" y="488" type="curve"/>
    </contour>
  </outline>
</glyph>
<glyph name="ellipsis" format="2">
  <advance width="783"/>
  <unicode hex="2026"/>
  <outline>
    <contour>
      <point x="671" y="-6" type="curve" smooth="yes"/>
      <point x="685" y="-6"/>
      <point x="698" y="4"/>
      <point x="698" y="33" type="curve" smooth="yes"/>
      <point x="698" y="63"/>
      <point x="685" y="73"/>
      <point x="671" y="73" type="curve" smooth="yes"/>
      <point x="654" y="73"/>
      <point x="641" y="63"/>
      <point x="641" y="33" type="curve" smooth="yes"/>
      <point x="641" y="4"/>
      <point x="654" y="-6"/>
    </contour>
    <contour>
      <point x="115" y="-6" type="curve" smooth="yes"/>
      <point x="129" y="-6"/>
      <point x="142" y="4"/>
      <point x="142" y="33" type="curve" smooth="yes"/>
      <point x="142" y="63"/>
      <point x="129" y="73"/>
      <point x="115" y="73" type="curve" smooth="yes"/>
      <point x="98" y="73"/>
      <point x="85" y="63"/>
      <point x="85" y="33" type="curve" smooth="yes"/>
      <point x="85" y="4"/>
      <point x="98" y="-6"/>
    </contour>
    <contour>
      <point x="393" y="-6" type="curve" smooth="yes"/>
      <point x="407" y="-6"/>
      <point x="420" y="4"/>
      <point x="420" y="33" type="curve" smooth="yes"/>
      <point x="420" y="63"/>
      <point x="407" y="73"/>
      <point x="393" y="73" type="curve" smooth="yes"/>
      <point x="376" y="73"/>
      <point x="363" y="63"/>
      <point x="363" y="33" type="curve" smooth="yes"/>
      <point x="363" y="4"/>
      <point x="376" y="-6"/>
    </contour>
  </outline>
</glyph>
<glyph name="foursuperior" format="2">
  <advance width="304"/>
  <unicode hex="2074"/>
  <outline>
    <contour>
      <point x="115" y="386" type="line"/>
      <point x="249" y="386" type="line"/>
      <point x="249" y="406" type="line"/>
      <point x="235" y="406" type="line" smooth="yes"/>
      <point x="207" y="406"/>
      <point x="202" y="414"/>
      <point x="202" y="459" type="curve" smooth="yes"/>
      <point x="202" y="526" type="line"/>
      <point x="270" y="526" type="line"/>
      <point x="270" y="551" type="line"/>
      <point x="202" y="551" type="line"/>
      <point x="202" y="818" type="line"/>
      <point x="178" y="818" type="line"/>
      <point x="26" y="540" type="line"/>
      <point x="26" y="526" type="line"/>
      <point x="174" y="526" type="line"/>
      <point x="174" y="459" type="line" smooth="yes"/>
      <point x="174" y="414"/>
      <point x="168" y="406"/>
      <point x="140" y="406" type="curve" smooth="yes"/>
      <point x="115" y="406" type="line"/>
    </contour>
    <contour>
      <point x="59" y="551" type="line"/>
      <point x="154" y="724" type="line" smooth="yes"/>
      <point x="162" y="739"/>
      <point x="174" y="766"/>
      <point x="177" y="775" type="curve"/>
      <point x="175" y="748"/>
      <point x="174" y="714"/>
      <point x="174" y="693" type="curve" smooth="yes"/>
      <point x="174" y="551" type="line"/>
    </contour>
  </outline>
</glyph>
<glyph name="candrabinduhalant-deva" format="2">
  <advance width="363"/>
  <unicode hex="A8F3"/>
  <note>
uniA8F3
</note>
  <outline>
    <contour>
      <point x="181" y="362" type="curve" smooth="yes"/>
      <point x="246" y="362"/>
      <point x="297" y="414"/>
      <point x="317" y="539" type="curve"/>
      <point x="279" y="548" type="line"/>
      <point x="263" y="445"/>
      <point x="229" y="412"/>
      <point x="179" y="412" type="curve" smooth="yes"/>
      <point x="122" y="412"/>
      <point x="95" y="463"/>
      <point x="76" y="542" type="curve"/>
      <point x="47" y="535" type="line"/>
      <point x="67" y="421"/>
      <point x="114" y="362"/>
    </contour>
    <contour>
      <point x="179" y="501" type="curve" smooth="yes"/>
      <point x="194" y="501"/>
      <point x="208" y="509"/>
      <point x="208" y="532" type="curve" smooth="yes"/>
      <point x="208" y="556"/>
      <point x="194" y="563"/>
      <point x="179" y="563" type="curve" smooth="yes"/>
      <point x="163" y="563"/>
      <point x="150" y="556"/>
      <point x="150" y="532" type="curve" smooth="yes"/>
      <point x="150" y="509"/>
      <point x="163" y="501"/>
    </contour>
    <contour>
      <point x="290" y="71" type="curve"/>
      <point x="315" y="85" type="line"/>
      <point x="223" y="257"/>
      <point x="201" y="279"/>
      <point x="141" y="279" type="curve" smooth="yes"/>
      <point x="125" y="279"/>
      <point x="108" y="274"/>
      <point x="99" y="271" type="curve"/>
      <point x="114" y="213" type="line"/>
      <point x="126" y="218"/>
      <point x="142" y="221"/>
      <point x="157" y="221" type="curve" smooth="yes"/>
      <point x="191" y="221"/>
      <point x="211" y="204"/>
    </contour>
  </outline>
</glyph>
<glyph name="iiMatra-tamil.alt01" format="2">
  <note>
uni0BC0
</note>
  <anchor x="-130" y="872" name="top"/>
  <outline>
    <contour>
      <point x="-178" y="520" type="curve"/>
      <point x="-178" y="540" type="line"/>
      <point x="-227" y="577"/>
      <point x="-248" y="630"/>
      <point x="-248" y="689" type="curve" smooth="yes"/>
      <point x="-248" y="776"/>
      <point x="-218" y="850"/>
      <point x="-132" y="850" type="curve" smooth="yes"/>
      <point x="-70" y="850"/>
      <point x="-25" y="804"/>
      <point x="-25" y="731" type="curve" smooth="yes"/>
      <point x="-25" y="676"/>
      <point x="-50" y="645"/>
      <point x="-90" y="645" type="curve" smooth="yes"/>
      <point x="-154" y="645"/>
      <point x="-167" y="750"/>
      <point x="-129" y="855" type="curve"/>
      <point x="-151" y="859" type="line"/>
      <point x="-201" y="741"/>
      <point x="-179" y="622"/>
      <point x="-89" y="622" type="curve" smooth="yes"/>
      <point x="-37" y="622"/>
      <point x="3" y="659"/>
      <point x="3" y="729" type="curve" smooth="yes"/>
      <point x="3" y="816"/>
      <point x="-51" y="872"/>
      <point x="-130" y="872" type="curve" smooth="yes"/>
      <point x="-232" y="872"/>
      <point x="-277" y="785"/>
      <point x="-277" y="690" type="curve" smooth="yes"/>
      <point x="-277" y="630"/>
      <point x="-249" y="557"/>
    </contour>
  </outline>
</glyph>
<glyph name="ngii-tamil" format="2">
  <advance width="748"/>
  <note>
g103
</note>
  <anchor x="380" y="0" name="bottom"/>
  <anchor x="380" y="0" name="nukta"/>
  <anchor x="640" y="872" name="top"/>
  <anchor x="373" y="542" name="vedic"/>
  <anchor x="422" y="542" name="imatra"/>
  <outline>
    <contour>
      <point x="633" y="521" type="curve" smooth="yes"/>
      <point x="642" y="521" type="line"/>
      <point x="642" y="542" type="line"/>
      <point x="633" y="542" type="line" smooth="yes"/>
      <point x="562" y="542"/>
      <point x="521" y="597"/>
      <point x="521" y="684" type="curve" smooth="yes"/>
      <point x="521" y="774"/>
      <point x="552" y="850"/>
      <point x="639" y="850" type="curve" smooth="yes"/>
      <point x="701" y="850"/>
      <point x="748" y="804"/>
      <point x="748" y="731" type="curve" smooth="yes"/>
      <point x="748" y="676"/>
      <point x="723" y="645"/>
      <point x="683" y="645" type="curve" smooth="yes"/>
      <point x="619" y="645"/>
      <point x="603" y="750"/>
      <point x="641" y="855" type="curve"/>
      <point x="619" y="859" type="line"/>
      <point x="570" y="741"/>
      <point x="594" y="622"/>
      <point x="684" y="622" type="curve" smooth="yes"/>
      <point x="736" y="622"/>
      <point x="776" y="659"/>
      <point x="776" y="729" type="curve" smooth="yes"/>
      <point x="776" y="816"/>
      <point x="720" y="872"/>
      <point x="640" y="872" type="curve" smooth="yes"/>
      <point x="538" y="872"/>
      <point x="491" y="783"/>
      <point x="491" y="685" type="curve" smooth="yes"/>
      <point x="491" y="584"/>
      <point x="544" y="521"/>
    </contour>
    <component base="nga-tamil"/>
  </outline>
</glyph>
<glyph name="ruu-tamil" format="2">
  <advance width="862"/>
  <note>
g131
</note>
  <anchor x="485" y="0" name="bottom"/>
  <anchor x="477" y="-217" name="nukta"/>
  <anchor x="487" y="542" name="top"/>
  <anchor x="468" y="542" name="vedic"/>
  <outline>
    <contour>
      <point x="477" y="-217" type="curve" smooth="yes"/>
      <point x="678" y="-217"/>
      <point x="828" y="-86"/>
      <point x="828" y="140" type="curve" smooth="yes"/>
      <point x="828" y="266"/>
      <point x="780" y="328"/>
      <point x="706" y="328" type="curve" smooth="yes"/>
      <point x="629" y="328"/>
      <point x="597" y="253"/>
      <point x="597" y="172" type="curve" smooth="yes"/>
      <point x="597" y="149" type="line"/>
      <point x="610" y="149" type="line"/>
      <point x="610" y="172" type="line" smooth="yes"/>
      <point x="610" y="230"/>
      <point x="640" y="304"/>
      <point x="701" y="304" type="curve" smooth="yes"/>
      <point x="760" y="304"/>
      <point x="797" y="257"/>
      <point x="797" y="140" type="curve" smooth="yes"/>
      <point x="797" y="-68"/>
      <point x="657" y="-191"/>
      <point x="479" y="-191" type="curve" smooth="yes"/>
      <point x="217" y="-191"/>
      <point x="88" y="11"/>
      <point x="88" y="326" type="curve" smooth="yes"/>
      <point x="88" y="438"/>
      <point x="111" y="524"/>
      <point x="177" y="524" type="curve" smooth="yes"/>
      <point x="209" y="524"/>
      <point x="234" y="503"/>
      <point x="234" y="460" type="curve" smooth="yes"/>
      <point x="234" y="383"/>
      <point x="174" y="352"/>
      <point x="79" y="376" type="curve"/>
      <point x="73" y="356" type="line"/>
      <point x="171" y="325"/>
      <point x="264" y="360"/>
      <point x="264" y="461" type="curve" smooth="yes"/>
      <point x="264" y="517"/>
      <point x="231" y="551"/>
      <point x="178" y="551" type="curve" smooth="yes"/>
      <point x="96" y="551"/>
      <point x="59" y="462"/>
      <point x="59" y="327" type="curve" smooth="yes"/>
      <point x="59" y="1"/>
      <point x="200" y="-217"/>
    </contour>
    <contour>
      <point x="348" y="0" type="line"/>
      <point x="376" y="0" type="line"/>
      <point x="376" y="519" type="line"/>
      <point x="581" y="519" type="line"/>
      <point x="581" y="0" type="line"/>
      <point x="610" y="0" type="line"/>
      <point x="610" y="519" type="line"/>
      <point x="751" y="519" type="line"/>
      <point x="751" y="542" type="line"/>
      <point x="348" y="542" type="line"/>
    </contour>
  </outline>
</glyph>
<glyph name="ttii-tamil" format="2">
  <advance width="697"/>
  <note>
g111
</note>
  <anchor x="386" y="0" name="bottom"/>
  <anchor x="386" y="0" name="nukta"/>
  <anchor x="463" y="542" name="top"/>
  <anchor x="385" y="542" name="vedic"/>
  <outline>
    <contour>
      <point x="95" y="0" type="line"/>
      <point x="676" y="0" type="line"/>
      <point x="676" y="23" type="line"/>
      <point x="124" y="23" type="line"/>
      <point x="124" y="542" type="line"/>
      <point x="95" y="542" type="line"/>
    </contour>
    <contour>
      <point x="529" y="2" type="curve" smooth="yes"/>
      <point x="543" y="2" type="line"/>
      <point x="543" y="23" type="line"/>
      <point x="525" y="23" type="line" smooth="yes"/>
      <point x="392" y="23"/>
      <point x="317" y="138"/>
      <point x="317" y="284" type="curve" smooth="yes"/>
      <point x="317" y="420"/>
      <point x="364" y="525"/>
      <point x="459" y="525" type="curve" smooth="yes"/>
      <point x="516" y="525"/>
      <point x="564" y="483"/>
      <point x="564" y="401" type="curve" smooth="yes"/>
      <point x="564" y="334"/>
      <point x="531" y="303"/>
      <point x="490" y="303" type="curve" smooth="yes"/>
      <point x="419" y="303"/>
      <point x="397" y="399"/>
      <point x="439" y="532" type="curve"/>
      <point x="417" y="530" type="line"/>
      <point x="364" y="386"/>
      <point x="405" y="278"/>
      <point x="495" y="278" type="curve" smooth="yes"/>
      <point x="547" y="278"/>
      <point x="593" y="320"/>
      <point x="593" y="397" type="curve" smooth="yes"/>
      <point x="593" y="499"/>
      <point x="534" y="551"/>
      <point x="462" y="551" type="curve" smooth="yes"/>
      <point x="346" y="551"/>
      <point x="291" y="434"/>
      <point x="291" y="282" type="curve" smooth="yes"/>
      <point x="291" y="127"/>
      <point x="374" y="2"/>
    </contour>
  </outline>
</glyph>
